<?xml version="1.0" encoding="UTF-8"?>
<svg xmlns="http://www.w3.org/2000/svg" viewBox="0 0 500 500">
  <g fill="#13005A">
    <path d="M250 30c-5.5 0-10 4.5-10 10v420c0 5.5 4.5 10 10 10s10-4.5 10-10V40c0-5.5-4.5-10-10-10z"/>
    <path d="M250 80c-33.1 0-60 26.9-60 60s26.9 60 60 60 60-26.9 60-60-26.9-60-60-60zm0 20c22.1 0 40 17.9 40 40s-17.9 40-40 40-40-17.9-40-40 17.9-40 40-40z"/>
    <path d="M250 120c-11 0-20 9-20 20s9 20 20 20 20-9 20-20-9-20-20-20z"/>
    <path d="M310 200h-30c-5.5 0-10 4.5-10 10s4.5 10 10 10h30c5.5 0 10-4.5 10-10s-4.5-10-10-10zM220 200h-30c-5.5 0-10 4.5-10 10s4.5 10 10 10h30c5.5 0 10-4.5 10-10s-4.5-10-10-10z"/>
    <path d="M330 230h-30c-5.5 0-10 4.5-10 10s4.5 10 10 10h30c5.5 0 10-4.5 10-10s-4.5-10-10-10zM200 230h-30c-5.5 0-10 4.5-10 10s4.5 10 10 10h30c5.5 0 10-4.5 10-10s-4.5-10-10-10z"/>
    <path d="M350 260h-30c-5.5 0-10 4.5-10 10s4.5 10 10 10h30c5.5 0 10-4.5 10-10s-4.5-10-10-10zM180 260h-30c-5.5 0-10 4.5-10 10s4.5 10 10 10h30c5.5 0 10-4.5 10-10s-4.5-10-10-10z"/>
    <path d="M370 290h-30c-5.5 0-10 4.5-10 10s4.5 10 10 10h30c5.5 0 10-4.5 10-10s-4.5-10-10-10zM160 290h-30c-5.5 0-10 4.5-10 10s4.5 10 10 10h30c5.5 0 10-4.5 10-10s-4.5-10-10-10z"/>
    <path d="M390 320h-30c-5.5 0-10 4.5-10 10s4.5 10 10 10h30c5.5 0 10-4.5 10-10s-4.5-10-10-10zM140 320h-30c-5.5 0-10 4.5-10 10s4.5 10 10 10h30c5.5 0 10-4.5 10-10s-4.5-10-10-10z"/>
  </g>
</svg>